HIERARCHY
ROOT joint_Root
{
	OFFSET 0.0 0.0 0.0
	CHANNELS 6 Xposition Yposition Zposition Zrotation Xrotation Yrotation 
	JOINT Hips
	{
		OFFSET 4.5925 91.4895 -427.239
		CHANNELS 6 Xposition Yposition Zposition Zrotation Xrotation Yrotation 
		JOINT Spine
		{
			OFFSET 15.7357 0.0 0.0
			CHANNELS 6 Xposition Yposition Zposition Zrotation Xrotation Yrotation 
			JOINT Chest
			{
				OFFSET 8.98455 -0.406207 0.0
				CHANNELS 6 Xposition Yposition Zposition Zrotation Xrotation Yrotation 
				JOINT Neck
				{
					OFFSET 16.3773 0.0 0.0
					CHANNELS 6 Xposition Yposition Zposition Zrotation Xrotation Yrotation 
					JOINT Head
					{
						OFFSET 6.45672 0.0 0.0
						CHANNELS 6 Xposition Yposition Zposition Zrotation Xrotation Yrotation 
						End Site
						{
							OFFSET 0.0 0.0 0.0
						}
					}
				}
				JOINT Shoulder_L
				{
					OFFSET 12.9942 -0.242716 4.98039
					CHANNELS 6 Xposition Yposition Zposition Zrotation Xrotation Yrotation 
					JOINT UpperArm_L
					{
						OFFSET 5.34809 0.0 0.0
						CHANNELS 6 Xposition Yposition Zposition Zrotation Xrotation Yrotation 
						JOINT LowerArm_L
						{
							OFFSET 24.3286 1.87007e-05 0.0
							CHANNELS 6 Xposition Yposition Zposition Zrotation Xrotation Yrotation 
							JOINT Hand_L
							{
								OFFSET 22.2916 0.0 0.0
								CHANNELS 6 Xposition Yposition Zposition Zrotation Xrotation Yrotation 
								End Site
								{
									OFFSET 0.0 0.0 0.0
								}
							}
						}
					}
				}
				JOINT Shoulder_R
				{
					OFFSET 12.9945 -0.242716 -4.98039
					CHANNELS 6 Xposition Yposition Zposition Zrotation Xrotation Yrotation 
					JOINT UpperArm_R
					{
						OFFSET -5.34813 0.0 0.0
						CHANNELS 6 Xposition Yposition Zposition Zrotation Xrotation Yrotation 
						JOINT LowerArm_R
						{
							OFFSET -24.3289 0.000322201 0.0
							CHANNELS 6 Xposition Yposition Zposition Zrotation Xrotation Yrotation 
							JOINT Hand_R
							{
								OFFSET -22.2915 -0.000108084 0.0
								CHANNELS 6 Xposition Yposition Zposition Zrotation Xrotation Yrotation 
								End Site
								{
									OFFSET 0.0 0.0 0.0
								}
							}
						}
					}
				}
			}
		}
		JOINT UpperLeg_L
		{
			OFFSET -2.19248 -6.46944 0.0
			CHANNELS 6 Xposition Yposition Zposition Zrotation Xrotation Yrotation 
			JOINT LowerLeg_L
			{
				OFFSET 39.0811 0.0 -1.23785e-05
				CHANNELS 6 Xposition Yposition Zposition Zrotation Xrotation Yrotation 
				JOINT Foot_L
				{
					OFFSET 40.9854 0.0 -1.26872e-05
					CHANNELS 6 Xposition Yposition Zposition Zrotation Xrotation Yrotation 
					JOINT Toes_L
					{
						OFFSET 11.7543 0.0 0.0
						CHANNELS 6 Xposition Yposition Zposition Zrotation Xrotation Yrotation 
						End Site
						{
							OFFSET 0.0 0.0 0.0
						}
					}
				}
			}
		}
		JOINT UpperLeg_R
		{
			OFFSET -2.19251 6.46944 0.0
			CHANNELS 6 Xposition Yposition Zposition Zrotation Xrotation Yrotation 
			JOINT LowerLeg_R
			{
				OFFSET -39.0811 -0.00228153 -0.0401928
				CHANNELS 6 Xposition Yposition Zposition Zrotation Xrotation Yrotation 
				JOINT Foot_R
				{
					OFFSET -40.9854 0.0 0.0
					CHANNELS 6 Xposition Yposition Zposition Zrotation Xrotation Yrotation 
					JOINT Toes_R
					{
						OFFSET -11.7543 0.0 0.0
						CHANNELS 6 Xposition Yposition Zposition Zrotation Xrotation Yrotation 
						End Site
						{
							OFFSET 0.0 0.0 0.0
						}
					}
				}
			}
		}
	}
}
MOTION
Frames:	8
Frame Time:	0.0333333
0.000000 0.000000 0.000000 0.000000 0.000000 -0.000000 3.446700 93.189800 14.745900 -88.023400 6.398510 174.209000 15.735700 0.000005 -0.000001 118.875000 84.067700 -118.439000 8.984550 -0.406207 -0.000000 2.613940 5.704900 0.739916 16.377300 -0.000001 -0.000001 -5.557980 -3.147670 2.330410 6.456720 -0.000001 -0.000000 -11.628600 -7.301740 8.164280 12.994200 -0.242716 4.980390 -90.047400 0.146509 -72.041800 5.348090 -0.000007 -0.000001 -58.057400 39.318900 0.139073 24.328600 0.000019 0.000005 34.004300 -14.401200 -110.238000 22.291600 -0.000001 0.000005 -1.697370 5.421060 -3.632010 12.994500 -0.242716 -4.980390 89.087100 5.409120 -80.406100 -5.348130 -0.000001 -0.000004 -64.164200 34.550200 -20.609100 -24.328900 0.000322 -0.000009 -1.085820 0.522174 -115.676000 -22.291500 -0.000108 -0.000004 15.313400 5.488390 -6.070690 -2.192480 -6.469440 -0.000000 179.505000 -4.089120 -26.922300 39.081100 -0.000007 -0.000012 -0.003564 0.003829 42.967700 40.985400 -0.000006 -0.000013 4.730120 -3.506470 -62.782400 11.754300 -0.000000 0.000003 -0.004183 -0.053339 -18.746600 -2.192510 6.469440 -0.000001 174.844000 20.103900 -178.570000 -39.081100 -0.002282 -0.040193 0.081257 -0.128253 31.292900 -40.985400 0.000008 0.000006 8.977130 19.062500 -49.469600 -11.754300 -0.000006 -0.000006 -0.153943 -0.562464 -40.385800
0.000000 0.000000 0.000000 0.000000 0.000000 -0.000000 3.598010 93.943900 8.352890 -86.433200 6.909210 175.049000 15.735700 0.000005 -0.000001 118.349000 83.633100 -117.838000 8.984550 -0.406207 -0.000000 3.430100 6.019910 0.841441 16.377300 -0.000001 -0.000001 -6.091130 -2.859110 2.107120 6.456720 -0.000001 -0.000000 -12.952100 -6.990140 7.834700 12.994200 -0.242716 4.980390 -89.503200 -1.460300 -71.208900 5.348090 -0.000007 -0.000001 -54.468900 36.703700 4.816640 24.328600 0.000019 0.000005 26.266700 -12.582800 -113.820000 22.291600 -0.000001 0.000005 0.196241 5.426630 -3.822980 12.994500 -0.242716 -4.980390 89.402400 3.659800 -80.719800 -5.348130 -0.000001 -0.000004 -56.556800 40.028000 -28.656400 -24.328900 0.000322 -0.000009 0.642790 -0.297285 -114.820000 -22.291500 -0.000108 -0.000004 13.246800 5.477320 -5.644500 -2.192480 -6.469440 -0.000000 -177.478000 -0.895224 -23.592100 39.081100 -0.000007 -0.000012 0.000375 -0.000743 26.791900 40.985400 -0.000006 -0.000013 3.274150 -1.480510 -64.308600 11.754300 -0.000000 0.000003 -0.004803 -0.059552 -18.999700 -2.192510 6.469440 -0.000001 173.742000 20.745800 -174.545000 -39.081100 -0.002282 -0.040193 0.127619 -0.216155 29.904600 -40.985400 0.000008 0.000006 4.705250 21.122400 -40.257400 -11.754300 -0.000006 -0.000006 -0.095943 -0.434378 -34.683100
0.000000 0.000000 0.000000 0.000000 0.000000 -0.000000 3.814090 93.318300 1.486040 -85.407700 7.495530 176.404000 15.735700 0.000005 -0.000001 116.720000 83.137200 -116.208000 8.984550 -0.406207 -0.000000 4.487580 6.146220 0.781983 16.377300 -0.000001 -0.000001 -5.657820 -2.766230 1.929420 6.456720 -0.000001 -0.000000 -14.089700 -6.428140 6.953190 12.994200 -0.242716 4.980390 -88.847500 -3.351510 -71.009700 5.348090 -0.000007 -0.000001 -51.291700 34.696600 8.932870 24.328600 0.000019 0.000005 19.491900 -10.211700 -116.606000 22.291600 -0.000001 0.000005 0.962369 5.419640 -3.586920 12.994500 -0.242716 -4.980390 89.620700 2.253690 -80.442400 -5.348130 -0.000001 -0.000004 -48.911700 43.641000 -35.798300 -24.328900 0.000322 -0.000009 0.708639 -0.322134 -114.443000 -22.291500 -0.000108 -0.000004 12.610800 5.465210 -5.192080 -2.192480 -6.469440 -0.000000 -175.709000 0.111960 -21.683300 39.081100 -0.000007 -0.000012 0.000661 -0.001895 19.251800 40.985400 -0.000006 -0.000013 2.862080 -1.933540 -65.225400 11.754300 -0.000000 0.000003 -0.004464 -0.056188 -18.862600 -2.192510 6.469440 -0.000001 173.236000 17.915400 -171.066000 -39.081100 -0.002282 -0.040193 0.161626 -0.260002 31.339300 -40.985400 0.000008 0.000006 1.335460 18.202600 -35.793100 -11.754300 -0.000006 -0.000006 -0.029953 -0.217250 -25.473200
0.000000 0.000000 0.000000 0.000000 0.000000 -0.000000 3.724140 91.609400 -5.320900 -85.934400 8.547420 176.470000 15.735700 0.000005 -0.000001 116.428000 83.364400 -116.291000 8.984550 -0.406207 -0.000000 4.129270 5.893340 0.061031 16.377300 -0.000001 -0.000001 -4.582130 -2.547740 1.707310 6.456720 -0.000001 -0.000000 -13.549600 -5.665670 6.054820 12.994200 -0.242716 4.980390 -88.291500 -4.959010 -70.962200 5.348090 -0.000007 -0.000001 -48.855100 33.071700 13.002500 24.328600 0.000019 0.000005 17.863200 -9.926870 -118.143000 22.291600 -0.000001 0.000005 0.369658 5.422770 -3.692820 12.994500 -0.242716 -4.980390 89.648100 1.935090 -79.692600 -5.348130 -0.000001 -0.000004 -42.541500 46.116600 -40.160600 -24.328900 0.000322 -0.000009 -1.287440 0.581373 -114.299000 -22.291500 -0.000108 -0.000004 12.177300 5.457340 -4.903360 -2.192480 -6.469440 -0.000000 -176.968000 -2.355530 -26.433000 39.081100 -0.000007 -0.000012 0.049266 -0.100438 26.128100 40.985400 -0.000006 -0.000013 1.266690 -4.448570 -63.753100 11.754300 -0.000000 0.000003 -0.006174 -0.072421 -19.524300 -2.192510 6.469440 -0.000001 173.853000 11.501900 -171.670000 -39.081100 -0.002282 -0.040193 0.166492 -0.212864 37.478100 -40.985400 0.000008 0.000006 0.746903 9.725950 -36.046600 -11.754300 -0.000006 -0.000006 -0.019768 -0.165999 -23.354700
0.000000 0.000000 0.000000 0.000000 0.000000 -0.000000 3.330400 88.967300 -12.164900 -87.849800 9.434210 176.346000 15.735700 0.000005 -0.000001 112.247000 83.891600 -112.852000 8.984550 -0.406207 -0.000000 3.576060 4.641520 -1.354510 16.377300 -0.000001 -0.000001 -3.566930 -1.871620 1.092600 6.456720 -0.000001 -0.000000 -12.437600 -4.906800 6.061650 12.994200 -0.242716 4.980390 -87.942800 -5.795010 -70.416600 5.348090 -0.000007 -0.000001 -46.180700 30.907500 15.705900 24.328600 0.000019 0.000005 20.259600 -11.594800 -118.569000 22.291600 -0.000001 0.000005 -0.407181 5.426130 -3.807130 12.994500 -0.242716 -4.980390 89.458600 2.780970 -78.978600 -5.348130 -0.000001 -0.000004 -39.636800 47.636100 -40.519200 -24.328900 0.000322 -0.000009 -2.631470 1.183970 -114.207000 -22.291500 -0.000108 -0.000004 10.598000 5.451310 -4.685680 -2.192480 -6.469440 -0.000000 -179.840000 -3.814510 -30.929000 39.081100 -0.000007 -0.000012 -0.153973 0.190555 38.939400 40.985400 -0.000006 -0.000013 2.087190 -2.908430 -61.798800 11.754300 -0.000000 0.000003 -0.000063 -0.001048 -16.620000 -2.192510 6.469440 -0.000001 172.969000 7.155080 -174.657000 -39.081100 -0.002282 -0.040193 0.158082 -0.139181 48.046400 -40.985400 0.000008 0.000006 4.347280 2.444950 -39.496700 -11.754300 -0.000006 -0.000006 -0.018058 -0.156283 -22.954800
0.000000 0.000000 0.000000 0.000000 0.000000 -0.000000 3.088730 85.928000 -19.010400 -88.572800 9.306550 177.820000 15.735700 0.000005 -0.000001 103.056000 83.930700 -103.746000 8.984550 -0.406207 -0.000000 4.079630 2.760260 -1.477380 16.377300 -0.000001 -0.000001 -3.660310 -1.056010 0.390413 6.456720 -0.000001 -0.000000 -10.330500 -4.086500 5.314340 12.994200 -0.242716 4.980390 -88.301200 -4.759100 -70.329800 5.348090 -0.000007 -0.000001 -42.984500 27.849100 16.523800 24.328600 0.000019 0.000005 22.770500 -12.849700 -117.916000 22.291600 -0.000001 0.000005 -1.674410 5.431500 -3.992640 12.994500 -0.242716 -4.980390 89.100800 4.274120 -78.109400 -5.348130 -0.000001 -0.000004 -42.131400 48.658000 -35.116000 -24.328900 0.000322 -0.000009 -0.256465 0.112790 -113.705000 -22.291500 -0.000108 -0.000004 9.271400 5.451120 -4.680860 -2.192480 -6.469440 -0.000000 178.846000 -3.012710 -31.297700 39.081100 -0.000007 -0.000012 -0.443989 0.347254 51.971200 40.985400 -0.000006 -0.000013 2.053870 -4.179350 -73.110700 11.754300 -0.000000 0.000003 -0.000317 -0.002726 -16.678900 -2.192510 6.469440 -0.000001 173.214000 4.979440 -178.129000 -39.081100 -0.002282 -0.040193 0.129805 -0.069485 61.242000 -40.985400 0.000008 0.000006 7.575350 -4.039820 -41.812700 -11.754300 -0.000006 -0.000006 -0.017673 -0.154043 -22.862700
0.000000 0.000000 0.000000 0.000000 0.000000 -0.000000 2.552600 84.138700 -25.098400 -91.083600 9.318400 178.622000 15.735700 0.000005 -0.000001 94.881400 83.618900 -96.339500 8.984550 -0.406207 -0.000000 4.966460 1.119400 -2.961480 16.377300 -0.000001 -0.000001 -4.629850 -0.837926 0.319736 6.456720 -0.000001 -0.000000 -10.546300 -3.246440 4.390160 12.994200 -0.242716 4.980390 -89.451200 -1.531760 -70.284200 5.348090 -0.000007 -0.000001 -40.298600 22.952200 11.964000 24.328600 0.000019 0.000005 29.403000 -14.411000 -113.832000 22.291600 -0.000001 0.000005 -3.321940 5.456960 -4.891080 12.994500 -0.242716 -4.980390 88.365700 7.665390 -77.926400 -5.348130 -0.000001 -0.000004 -50.829400 46.868300 -21.738000 -24.328900 0.000322 -0.000009 3.349140 -1.401300 -112.679000 -22.291500 -0.000108 -0.000004 9.121500 5.478730 -5.699190 -2.192480 -6.469440 -0.000000 175.263000 -3.930960 -28.474000 39.081100 -0.000007 -0.000012 -0.584199 0.386087 56.541400 40.985400 -0.000006 -0.000013 2.958000 -4.362190 -80.184700 11.754300 -0.000000 0.000003 -0.000546 -0.004288 -16.733700 -2.192510 6.469440 -0.000001 171.595000 4.241330 174.646000 -39.081100 -0.002282 -0.040193 0.064841 -0.017439 74.240400 -40.985400 0.000008 0.000006 11.008400 -6.969860 -43.007200 -11.754300 -0.000006 -0.000006 -0.016699 -0.148261 -22.625000
0.000000 0.000000 0.000000 0.000000 0.000000 -0.000000 2.315360 83.694300 -30.815200 -90.857100 9.633660 178.696000 15.735700 0.000005 -0.000001 93.411100 83.449900 -94.650000 8.984550 -0.406207 -0.000000 5.321290 0.804142 -2.512350 16.377300 -0.000001 -0.000001 -4.808630 -1.043100 0.258271 6.456720 -0.000001 -0.000000 -10.982800 -2.942120 4.104470 12.994200 -0.242716 4.980390 -90.334500 0.945686 -70.514700 5.348090 -0.000007 -0.000001 -44.101200 18.365000 4.007950 24.328600 0.000019 0.000005 40.651200 -15.366800 -107.152000 22.291600 -0.000001 0.000005 -4.624140 5.486350 -5.992960 12.994500 -0.242716 -4.980390 87.866500 9.340230 -77.072700 -5.348130 -0.000001 -0.000004 -62.419700 41.985400 -5.220820 -24.328900 0.000322 -0.000009 0.305839 -0.118879 -111.221000 -22.291500 -0.000108 -0.000004 10.297000 5.489660 -6.122150 -2.192480 -6.469440 -0.000000 174.913000 -4.789300 -23.687700 39.081100 -0.000007 -0.000012 -0.629150 0.418095 56.396000 40.985400 -0.000006 -0.000013 3.434730 -4.485380 -84.787500 11.754300 -0.000000 0.000003 -0.000593 -0.004587 -16.744000 -2.192510 6.469440 -0.000001 173.194000 3.394130 166.492000 -39.081100 -0.002282 -0.040193 -0.008282 0.001385 82.795500 -40.985400 0.000008 0.000006 11.469100 -7.141630 -44.950700 -11.754300 -0.000006 -0.000006 -0.016231 -0.145437 -22.508900
